HIERARCHY
ROOT Hips
{
	OFFSET 0.00000 0.00000 0.00000
	CHANNELS 6 Xposition Yposition Zposition Zrotation Yrotation Xrotation 
	JOINT LHipJoint
	{
		OFFSET 0 0 0
		CHANNELS 3 Zrotation Yrotation Xrotation
		JOINT LeftHip
		{
			OFFSET 1.84395 -1.68683 0.74144
			CHANNELS 3 Zrotation Yrotation Xrotation
			JOINT LeftKnee
			{
				OFFSET 2.27037 -6.23779 0.00000
				CHANNELS 3 Zrotation Yrotation Xrotation
				JOINT LeftAnkle
				{
					OFFSET 2.56918 -7.05877 0.00000
					CHANNELS 3 Zrotation Yrotation Xrotation
					JOINT LeftToe
					{
						OFFSET 0.22276 -0.61202 1.71784
						CHANNELS 3 Zrotation Yrotation Xrotation
						End Site
						{
							OFFSET 0.00000 -0.00000 0.91613
						}
					}
				}
			}
		}
	}
	JOINT RHipJoint
	{
		OFFSET 0 0 0
		CHANNELS 3 Zrotation Yrotation Xrotation
		JOINT RightHip
		{
			OFFSET -1.76833 -1.68684 0.74144
			CHANNELS 3 Zrotation Yrotation Xrotation
			JOINT RightKnee
			{
				OFFSET -2.49360 -6.85110 0.00000
				CHANNELS 3 Zrotation Yrotation Xrotation
				JOINT RightAnkle
				{
					OFFSET -2.55538 -7.02085 0.00000
					CHANNELS 3 Zrotation Yrotation Xrotation
					JOINT RightToe
					{
						OFFSET -0.21516 -0.59115 1.68050
						CHANNELS 3 Zrotation Yrotation Xrotation
						End Site
						{
							OFFSET -0.00000 -0.00000 0.89604
						}
					}
				}
			}
		}
	}
	JOINT lowerback
	{
		OFFSET 0 0 0
		CHANNELS 3 Zrotation Yrotation Xrotation
		JOINT Chest
		{
			OFFSET 0.06382 1.72312 -0.19613
			CHANNELS 3 Zrotation Yrotation Xrotation
			JOINT Chest2
			{
				OFFSET -0.00055 1.73507 0.23859
				CHANNELS 3 Zrotation Yrotation Xrotation
				JOINT lowerneck
				{
					OFFSET 0 0 0
					CHANNELS 3 Zrotation Yrotation Xrotation
					JOINT Neck
					{
						OFFSET 0.03638 1.65562 0.09633
						CHANNELS 3 Zrotation Yrotation Xrotation
						JOINT Head
						{
							OFFSET 0.06388 1.62807 -0.32386
							CHANNELS 3 Zrotation Yrotation Xrotation
							End Site
							{
								OFFSET 0.00995 1.67644 -0.12021
							}
						}
					}
				}
				JOINT LeftCollar
				{
					OFFSET 0 0 0
					CHANNELS 3 Zrotation Yrotation Xrotation
					JOINT LeftShoulder
					{
						OFFSET 3.09648 1.42991 0.28122
CHANNELS 3 Zrotation Xrotation Yrotation
						JOINT LeftElbow
						{
OFFSET 0 -5.118780 -0.000000
CHANNELS 3 Zrotation Xrotation Yrotation
							JOINT LeftWrist
							{
OFFSET 0 -3.599710 0.000000
CHANNELS 3 Zrotation Xrotation Yrotation
								JOINT lhand
								{
									OFFSET 0 0 0
CHANNELS 3 Zrotation Xrotation Yrotation
									JOINT LFingers
									{
OFFSET 0 -0.628770 0.000000
CHANNELS 3 Zrotation Xrotation Yrotation
										End Site
										{
OFFSET 0 -0.506930 0.000000
										}
									}
								}
								JOINT LThumb
								{
OFFSET 0 0.000000 0.000000
CHANNELS 3 Zrotation Xrotation Yrotation
									End Site
									{
OFFSET 0 -0.514670 0.514670
									}
								}
							}
						}
					}
				}
				JOINT RightCollar
				{
					OFFSET 0 0 0
					CHANNELS 3 Zrotation Yrotation Xrotation
					JOINT RightShoulder
					{
						OFFSET -3.33565 1.14597 0.05047
CHANNELS 3 Zrotation Xrotation Yrotation
						JOINT RightElbow
						{
OFFSET 0 -5.490200 0.000000
CHANNELS 3 Zrotation Xrotation Yrotation
							JOINT RightWrist
							{
OFFSET 0 -3.206590 -0.000000
CHANNELS 3 Zrotation Xrotation Yrotation
								JOINT rhand
								{
									OFFSET 0 0 0
CHANNELS 3 Zrotation Xrotation Yrotation
									JOINT RFingers
									{
OFFSET 0 -0.691880 0.000000
CHANNELS 3 Zrotation Xrotation Yrotation
										End Site
										{
OFFSET 0 -0.557810 0.000000
										}
									}
								}
								JOINT RThumb
								{
OFFSET 0 0.000000 0.000000
CHANNELS 3 Zrotation Xrotation Yrotation
									End Site
									{
OFFSET 0 -0.566330 0.566330
									}
								}
							}
						}
					}
				}
			}
		}
	}
}
MOTION
Frames: 11
Frame Time: 0.008333333333333333
0.631600 17.440000 9.127600 -9.927000 -1.638000 8.891600 0.000000 0.000000 0.000000 -18.831000 -41.174700 25.226400 0.063600 -1.627700 -4.477800 -4.702100 42.840400 -45.185200 0.762000 5.574500 15.554800 0.000000 0.000000 0.000000 29.388200 25.643700 7.042600 -0.004600 -0.439300 1.207100 1.111000 -21.523400 -20.362100 -0.089900 -1.933700 5.322500 6.917900 1.607000 -0.131300 1.144000 2.614500 -9.189400 -2.842700 0.786100 -9.446100 -7.666000 -12.411200 -5.016500 11.563100 -18.781500 19.123300 3.155500 -8.610400 8.616200 0.000000 0.000000 0.000000 -1.656300 7.972800 20.969300 11.915100 -19.677200 2.073600 20.018500 21.884600 12.864700 0.000000 0.000000 0.000000 -7.125000 0.000000 0.000000 -5.025400 16.352200 -3.420600 0.000000 0.000000 0.000000 5.125300 12.153600 -14.429100 -12.711900 -20.863600 -2.349700 4.554400 42.806000 28.235100 0.000000 0.000000 0.000000 7.125000 0.000000 -0.000000 36.491700 54.255800 -9.234900
0.631349 17.439744 9.130882 -9.850686 -1.642379 8.866098 0.000000 0.000000 0.000000 -18.999919 -41.165214 25.329303 0.064196 -1.634845 -4.497642 -4.750055 42.914127 -45.168957 0.738997 5.491832 15.316821 0.000000 0.000000 0.000000 29.240864 25.370069 6.935458 -0.004796 -0.445331 1.223730 1.071549 -21.264203 -20.257873 -0.015177 -0.763855 2.099383 6.830226 1.572949 -0.184122 1.302796 2.569005 -9.145633 -2.619500 0.781754 -9.379054 -8.310492 -12.302331 -4.988015 11.766425 -18.599642 19.128652 3.339509 -8.551365 8.677423 0.000000 0.000000 0.000000 -2.130768 7.930498 20.647242 12.068414 -19.907165 2.125550 19.669151 22.040116 11.531973 0.000000 0.000000 0.000000 -7.125000 0.000000 0.000000 -5.235088 17.784887 -3.400158 0.000000 0.000000 0.000000 4.630308 11.986320 -14.557341 -12.431244 -20.448171 -2.250675 4.029920 43.288279 27.954091 0.000000 0.000000 0.000000 7.125000 0.000000 0.000000 35.794148 54.124084 -8.897821
0.623561 17.445473 9.132507 -9.494623 -1.687497 8.998752 0.000000 0.000000 0.000000 -19.489809 -41.579893 25.420458 0.062115 -1.608576 -4.424999 -4.705681 43.059961 -45.663031 0.780742 5.641217 15.746800 0.000000 0.000000 0.000000 28.658050 25.225635 6.494199 -0.006347 -0.515397 1.416196 1.020939 -20.957017 -20.197909 -0.025585 -0.992487 2.728581 6.373496 1.573736 -0.345326 1.324406 2.537582 -9.190797 -2.336506 0.804235 -9.347180 -8.911735 -12.222650 -4.917557 12.080762 -18.500957 19.180808 3.545797 -8.520394 8.763172 0.000000 0.000000 0.000000 -2.399700 7.989613 20.229794 12.144219 -20.020571 2.151395 19.814301 21.763590 10.643969 0.000000 0.000000 0.000000 -7.125000 0.000000 0.000000 -5.117058 18.707967 -3.218329 0.000000 0.000000 0.000000 4.315510 11.959577 -14.419805 -12.323277 -20.287729 -2.213136 4.316914 42.617588 28.313395 0.000000 0.000000 0.000000 7.125000 0.000000 0.000000 36.337856 54.364066 -9.290042
0.609168 17.456145 9.164178 -9.245871 -1.501922 9.534935 0.000000 0.000000 0.000000 -19.590237 -42.252564 25.174471 0.062666 -1.615570 -4.444324 -4.770894 43.341206 -46.048446 0.779035 5.635283 15.729915 0.000000 0.000000 0.000000 27.982326 24.688823 5.438797 -0.008802 -0.605570 1.664074 0.908504 -20.249625 -20.043365 -0.194932 -2.843172 7.842399 5.881572 1.479656 -1.493703 1.485663 2.307776 -9.228868 -1.843409 0.756542 -8.745698 -9.530852 -12.131818 -4.936945 12.240967 -18.351556 19.291359 3.706512 -8.473774 8.863898 0.000000 0.000000 0.000000 -2.819461 8.025499 20.041553 12.213168 -20.123519 2.175089 20.047497 21.099871 10.108806 0.000000 0.000000 0.000000 -7.125000 0.000000 0.000000 -4.943887 19.255295 -3.048199 0.000000 0.000000 0.000000 3.723112 11.716039 -14.004148 -12.024821 -19.841876 -2.110663 4.819841 41.300722 28.979819 0.000000 0.000000 0.000000 7.125000 0.000000 0.000000 37.333051 54.809177 -10.033834
0.607782 17.454912 9.163312 -9.265466 -1.462868 9.537067 0.000000 0.000000 0.000000 -19.582096 -42.310883 25.214017 0.063127 -1.620460 -4.458000 -4.808927 43.400990 -46.042682 0.769378 5.600984 15.630996 0.000000 0.000000 0.000000 28.026350 24.709261 5.588446 -0.006300 -0.510832 1.403653 0.950597 -20.440316 -19.925316 -0.175865 -2.701222 7.447893 5.794054 1.307897 -1.507610 1.717362 2.088646 -9.236907 -1.537196 0.664781 -8.773478 -9.906223 -11.954083 -4.940276 12.227177 -18.065009 19.391463 3.797137 -8.363042 8.898032 0.000000 0.000000 0.000000 -3.242981 8.097317 20.388037 12.283759 -20.228794 2.199398 20.131418 20.786537 9.996328 0.000000 0.000000 0.000000 -7.125000 0.000000 0.000000 -4.882603 19.367821 -2.997889 0.000000 0.000000 0.000000 3.295545 11.769462 -13.419220 -11.998055 -19.801647 -2.101642 4.735026 41.316918 28.929475 0.000000 0.000000 0.000000 7.125000 0.000000 0.000000 37.214399 54.784764 -9.971134
0.605761 17.453853 9.162884 -9.242512 -1.421527 9.579351 0.000000 0.000000 0.000000 -19.492529 -42.282121 25.063436 0.062792 -1.617012 -4.448442 -4.808823 43.342948 -45.913416 0.767551 5.594519 15.612390 0.000000 0.000000 0.000000 27.993952 24.703748 5.530106 -0.006529 -0.520328 1.429787 0.950358 -20.441192 -19.930024 -0.180114 -2.733512 7.537753 5.441747 0.770859 -1.613391 2.418541 1.400498 -9.379123 -0.557243 0.378663 -8.939748 -11.191298 -11.338657 -4.543958 12.301391 -17.120669 19.627348 4.172762 -8.017125 8.912483 0.000000 0.000000 0.000000 -4.567178 8.582248 22.047866 12.489874 -20.535270 2.271206 19.996233 20.772674 10.040483 0.000000 0.000000 0.000000 -7.125000 0.000000 0.000000 -4.979293 19.330999 -3.061868 0.000000 0.000000 0.000000 1.937232 12.144296 -11.578133 -11.919251 -19.683404 -2.074996 4.690807 41.278443 28.960714 0.000000 0.000000 0.000000 7.125000 0.000000 0.000000 37.199691 54.818525 -9.998792
0.603446 17.452256 9.165132 -9.329756 -1.395064 9.553468 0.000000 0.000000 0.000000 -19.336856 -42.183780 25.024809 0.063322 -1.623264 -4.465605 -4.828512 43.307619 -45.761801 0.739746 5.494471 15.324424 0.000000 0.000000 0.000000 28.107946 24.676222 5.423794 -0.008876 -0.608872 1.673251 0.921827 -20.325822 -20.040345 -0.181912 -2.747351 7.576051 5.554936 0.804394 -1.600772 2.401779 1.449836 -9.384055 -0.640664 0.393180 -8.949097 -11.215255 -11.361985 -4.540522 12.382585 -17.177635 19.675552 4.195631 -8.037943 8.946149 0.000000 0.000000 0.000000 -4.467975 8.607854 21.837954 12.473489 -20.510867 2.265452 20.083364 20.594054 10.065383 0.000000 0.000000 0.000000 -7.125000 0.000000 0.000000 -4.917746 19.298366 -3.027287 0.000000 0.000000 0.000000 2.047066 12.183826 -11.751149 -11.940997 -19.716095 -2.082314 4.780403 41.318304 28.992974 0.000000 0.000000 0.000000 7.125000 0.000000 0.000000 37.307860 54.827367 -10.043086
0.602900 17.451797 9.165826 -9.347321 -1.401400 9.547077 0.000000 0.000000 0.000000 -19.344922 -42.193776 25.067252 0.063474 -1.626040 -4.473320 -4.855083 43.351043 -45.761367 0.740271 5.496319 15.329685 0.000000 0.000000 0.000000 28.140596 24.710875 5.419167 -0.009451 -0.628491 1.727114 0.920997 -20.326981 -20.053929 -0.177812 -2.716349 7.489945 5.622529 0.830405 -1.573710 2.383575 1.490493 -9.424363 -0.699948 0.405257 -9.007183 -11.282420 -11.368688 -4.461590 12.411889 -17.198177 19.706509 4.217369 -8.053000 8.954192 0.000000 0.000000 0.000000 -4.426056 8.669394 21.938989 12.444623 -20.468061 2.255323 20.072455 20.644882 10.299044 0.000000 0.000000 0.000000 -7.125000 0.000000 0.000000 -4.928945 19.052482 -3.061276 0.000000 0.000000 0.000000 2.087170 12.256446 -11.797005 -11.958054 -19.741657 -2.088068 4.842457 41.260320 28.949763 0.000000 0.000000 0.000000 7.125000 0.000000 0.000000 37.328889 54.780484 -10.004791
0.601865 17.451171 9.165976 -9.330434 -1.395973 9.571923 0.000000 0.000000 0.000000 -19.326011 -42.201413 25.022458 0.063459 -1.625005 -4.470469 -4.788459 43.274420 -45.835077 0.762506 5.576442 15.560303 0.000000 0.000000 0.000000 28.117304 24.731464 5.383340 -0.009900 -0.641488 1.762764 0.916781 -20.321902 -20.096695 -0.181040 -2.740469 7.557062 5.607950 0.843488 -1.632812 2.382038 1.503253 -9.433425 -0.693432 0.413117 -8.981729 -11.257328 -11.360449 -4.403707 12.329599 -17.172064 19.690248 4.193283 -8.048708 8.924124 0.000000 0.000000 0.000000 -4.400729 8.675163 22.044522 12.438210 -20.458616 2.253099 20.040942 20.587662 10.523606 0.000000 0.000000 0.000000 -7.125000 0.000000 0.000000 -4.954852 18.817803 -3.103407 0.000000 0.000000 0.000000 2.096280 12.262888 -11.790830 -11.986951 -19.785096 -2.097893 5.063165 41.089357 28.990897 0.000000 0.000000 0.000000 7.125000 0.000000 0.000000 37.563777 54.771361 -10.073507
0.601266 17.451366 9.166966 -9.307936 -1.420411 9.523028 0.000000 0.000000 0.000000 -19.484921 -42.251990 25.217787 0.064332 -1.636753 -4.502695 -4.811767 43.371361 -45.966483 0.754994 5.549379 15.482440 0.000000 0.000000 0.000000 28.132522 24.782438 5.474865 -0.009800 -0.638397 1.754393 0.921342 -20.367668 -20.140929 -0.184334 -2.765138 7.625446 5.593758 0.858787 -1.646829 2.380907 1.519553 -9.387770 -0.687836 0.424228 -8.921497 -11.270031 -11.345128 -4.454617 12.328110 -17.146248 19.712437 4.195315 -8.034491 8.938694 0.000000 0.000000 0.000000 -4.416346 8.632475 22.103429 12.436197 -20.455612 2.252444 20.264787 20.512928 10.442530 0.000000 0.000000 0.000000 -7.125000 0.000000 0.000000 -4.795052 18.886414 -2.995276 0.000000 0.000000 0.000000 2.097665 12.147696 -11.902592 -11.980034 -19.774718 -2.095545 5.068820 41.161429 28.939016 0.000000 0.000000 0.000000 7.125000 0.000000 0.000000 37.526204 54.728477 -10.019297
0.601737 17.450953 9.167116 -9.309591 -1.404825 9.546074 0.000000 0.000000 0.000000 -19.425107 -42.235575 25.134519 0.064253 -1.635590 -4.499574 -4.839611 43.372465 -45.866468 0.748566 5.526290 15.415887 0.000000 0.000000 0.000000 28.123763 24.784573 5.437682 -0.010037 -0.646273 1.776005 0.921930 -20.366865 -20.131229 -0.179629 -2.729834 7.527460 5.611235 0.855057 -1.699099 2.391091 1.511264 -9.381828 -0.685545 0.420231 -8.884630 -11.257302 -11.314019 -4.500156 12.320333 -17.099264 19.729712 4.194804 -8.009545 8.944666 0.000000 0.000000 0.000000 -4.434754 8.596793 22.370245 12.412964 -20.421057 2.244290 20.123915 20.779676 10.307035 0.000000 0.000000 0.000000 -7.125000 0.000000 0.000000 -4.892545 19.040238 -3.039825 0.000000 0.000000 0.000000 2.079790 12.041953 -12.006715 -11.942379 -19.718182 -2.082835 4.740531 41.420330 28.712193 0.000000 0.000000 0.000000 7.125000 0.000000 0.000000 37.042880 54.607813 -9.745771
